<svg width="40" height="40" viewBox="0 0 40 40" fill="none" xmlns="http://www.w3.org/2000/svg">
<path d="M40 3.49831C40 2.61468 39.649 1.76724 39.0242 1.14243C38.3993 0.517606 37.5519 0.166587 36.6683 0.166587L10.0145 0C9.13086 0 8.28342 0.351021 7.65861 0.97584C7.03379 1.60066 6.68277 2.4481 6.68277 3.33172C6.68277 4.21535 7.03379 5.06279 7.65861 5.68761C8.28342 6.31243 9.13086 6.66345 10.0145 6.66345H28.5389L0.985518 34.2834C0.673241 34.5932 0.425381 34.9617 0.256233 35.3677C0.0870862 35.7737 0 36.2091 0 36.649C0 37.0888 0.0870862 37.5243 0.256233 37.9303C0.425381 38.3363 0.673241 38.7048 0.985518 39.0145C1.29525 39.3268 1.66374 39.5746 2.06974 39.7438C2.47574 39.9129 2.91121 40 3.35104 40C3.79087 40 4.22634 39.9129 4.63235 39.7438C5.03835 39.5746 5.40684 39.3268 5.71657 39.0145L33.3366 11.3945V29.9855C33.3366 30.8691 33.6876 31.7166 34.3124 32.3414C34.9372 32.9662 35.7846 33.3172 36.6683 33.3172C37.5519 33.3172 38.3993 32.9662 39.0242 32.3414C39.649 31.7166 40 30.8691 40 29.9855V3.49831Z" fill="#231F20"/>
</svg>
