<svg width="24" height="24" viewBox="0 0 24 24" fill="none" xmlns="http://www.w3.org/2000/svg">
<path d="M23.9327 7.05204C23.8751 5.77422 23.6685 4.89992 23.3755 4.13611C23.0681 3.34828 22.6597 2.67574 21.992 2.01281C21.3243 1.34988 20.6565 0.931946 19.8687 0.629304C19.1049 0.331465 18.2306 0.129704 16.9528 0.0720576C15.6701 0.0144115 15.2618 0 12.0048 0C8.74299 0 8.33467 0.0144115 7.05685 0.0720576C5.77902 0.129704 4.90472 0.336269 4.14091 0.629304C3.34828 0.93675 2.67574 1.34508 2.01281 2.01281C1.34988 2.68054 0.931946 3.34828 0.629303 4.13611C0.336269 4.89992 0.129704 5.77422 0.0720576 7.05204C0.0144115 8.33467 0 8.743 0 12C0 15.2618 0.0144115 15.6701 0.0720576 16.948C0.129704 18.2258 0.336269 19.1001 0.629303 19.8639C0.936749 20.6517 1.34508 21.3243 2.01281 21.9872C2.67574 22.6549 3.34828 23.0681 4.13611 23.3707C4.89992 23.6685 5.77422 23.8703 7.05204 23.9279C8.33467 23.9856 8.74299 24 12 24C15.2618 24 15.6701 23.9856 16.948 23.9279C18.2258 23.8703 19.1001 23.6637 19.8639 23.3707C20.6517 23.0633 21.3243 22.6549 21.9872 21.9872C22.6501 21.3195 23.0681 20.6517 23.3707 19.8639C23.6685 19.1001 23.8703 18.2258 23.9279 16.948C23.9856 15.6653 24 15.257 24 12C24 8.743 23.9904 8.32986 23.9327 7.05204ZM21.7758 16.8519C21.723 18.024 21.526 18.6629 21.3627 19.0809C21.1465 19.6381 20.8823 20.0416 20.4596 20.4644C20.0368 20.8871 19.6381 21.1417 19.0761 21.3675C18.6533 21.5308 18.0144 21.7278 16.8471 21.7806C15.5837 21.8383 15.2042 21.8527 11.9952 21.8527C8.78623 21.8527 8.40672 21.8383 7.14331 21.7806C5.97118 21.7278 5.33227 21.5308 4.91433 21.3675C4.35709 21.1513 3.95356 20.8871 3.53082 20.4644C3.10809 20.0416 2.85348 19.6429 2.6277 19.0809C2.46437 18.6581 2.26741 18.0192 2.21457 16.8519C2.15693 15.5885 2.14251 15.209 2.14251 12C2.14251 8.79103 2.15693 8.41153 2.21457 7.14812C2.26741 5.97598 2.46437 5.33707 2.6277 4.91914C2.84388 4.36189 3.10809 3.95837 3.53082 3.53563C3.95356 3.11289 4.35228 2.85829 4.91433 2.63251C5.33707 2.46918 5.97598 2.27222 7.14331 2.21938C8.40672 2.16173 8.78623 2.14732 11.9952 2.14732C15.2042 2.14732 15.5837 2.16173 16.8471 2.21938C18.0192 2.27222 18.6581 2.46918 19.0761 2.63251C19.6333 2.84868 20.0368 3.11289 20.4596 3.53563C20.8823 3.95837 21.1369 4.35709 21.3627 4.91914C21.526 5.34187 21.723 5.98079 21.7758 7.14812C21.8335 8.41153 21.8479 8.79103 21.8479 12C21.8479 15.209 21.8287 15.5885 21.7758 16.8519Z" fill="white"/>
<path d="M11.9953 5.83154C8.58455 5.83154 5.82715 8.59375 5.82715 11.9997C5.82715 15.4104 8.58936 18.1678 11.9953 18.1678C15.4012 18.1678 18.1634 15.4008 18.1634 11.9997C18.1634 8.58895 15.406 5.83154 11.9953 5.83154ZM11.9953 16.0013C9.78551 16.0013 7.99368 14.2094 7.99368 11.9997C7.99368 9.78991 9.78551 7.99808 11.9953 7.99808C14.2051 7.99808 15.9969 9.78991 15.9969 11.9997C15.9969 14.2094 14.2051 16.0013 11.9953 16.0013Z" fill="white"/>
<path d="M18.4036 7.03294C19.1995 7.03294 19.8447 6.38771 19.8447 5.59179C19.8447 4.79586 19.1995 4.15063 18.4036 4.15063C17.6076 4.15063 16.9624 4.79586 16.9624 5.59179C16.9624 6.38771 17.6076 7.03294 18.4036 7.03294Z" fill="white"/>
</svg>
