<svg width="80" height="80" viewBox="0 0 80 80" fill="none" xmlns="http://www.w3.org/2000/svg">
<path d="M70.2667 23.3333C69.6907 22.3353 68.8659 21.5037 67.8728 20.9195C66.8797 20.3353 65.7521 20.0185 64.6 19.9999H21.9333L20 12.4666C19.8047 11.7394 19.3689 11.0998 18.7636 10.6518C18.1583 10.2039 17.4192 9.97416 16.6667 9.99994H9.99999C9.11593 9.99994 8.26809 10.3511 7.64297 10.9763C7.01785 11.6014 6.66666 12.4492 6.66666 13.3333C6.66666 14.2173 7.01785 15.0652 7.64297 15.6903C8.26809 16.3154 9.11593 16.6666 9.99999 16.6666H14.1333L23.3333 50.8666C23.5287 51.5938 23.9645 52.2335 24.5697 52.6814C25.175 53.1293 25.9141 53.3591 26.6667 53.3333H56.6667C57.2822 53.3314 57.8852 53.1591 58.4089 52.8355C58.9325 52.5119 59.3563 52.0497 59.6333 51.4999L70.5667 29.6333C71.0405 28.64 71.2612 27.5448 71.2088 26.4456C71.1565 25.3463 70.8328 24.277 70.2667 23.3333Z" fill="#231F20"/>
<path d="M25 70.0001C27.7614 70.0001 30 67.7615 30 65.0001C30 62.2386 27.7614 60.0001 25 60.0001C22.2386 60.0001 20 62.2386 20 65.0001C20 67.7615 22.2386 70.0001 25 70.0001Z" fill="#231F20"/>
<path d="M58.3333 70.0001C61.0947 70.0001 63.3333 67.7615 63.3333 65.0001C63.3333 62.2386 61.0947 60.0001 58.3333 60.0001C55.5719 60.0001 53.3333 62.2386 53.3333 65.0001C53.3333 67.7615 55.5719 70.0001 58.3333 70.0001Z" fill="#231F20"/>
</svg>
